<?xml version="1.0" encoding="UTF-8"?><svg id="Capa_1" xmlns="http://www.w3.org/2000/svg" viewBox="0 0 76.06 76.06"><defs><style>.cls-1{fill:#f8f8f8;}.cls-2{fill:#007791;}</style></defs><g><circle class="cls-2" cx="38.03" cy="38.03" r="38.03"/><circle class="cls-1" cx="38.03" cy="38.03" r="33.66"/></g><path class="cls-2" d="M55.52,24.29v3.75c0,3.45-7.83,6.24-17.49,6.24s-17.49-2.79-17.49-6.24v-3.75c0-3.45,7.83-6.24,17.49-6.24s17.49,2.79,17.49,6.24Zm-4.28,10.51c1.62-.58,3.11-1.32,4.28-2.23v7.95c0,3.45-7.83,6.24-17.49,6.24s-17.49-2.79-17.49-6.24v-7.95c1.16,.92,2.65,1.65,4.28,2.23,3.5,1.25,8.17,1.97,13.21,1.97s9.7-.73,13.21-1.97Zm-30.69,10.26c1.16,.92,2.65,1.65,4.28,2.23,3.5,1.25,8.17,1.97,13.21,1.97s9.7-.73,13.21-1.97c1.62-.58,3.11-1.32,4.28-2.23v6.71c0,3.45-7.83,6.24-17.49,6.24s-17.49-2.79-17.49-6.24v-6.71Z"/></svg>