<?xml version="1.0" encoding="UTF-8"?><svg id="Capa_1" xmlns="http://www.w3.org/2000/svg" viewBox="0 0 76.06 76.06"><defs><style>.cls-1{fill:#f8f8f8;}.cls-2{fill:#211f1f;}</style></defs><g><circle class="cls-2" cx="38.03" cy="38.03" r="38.03"/><circle class="cls-1" cx="38.03" cy="38.03" r="33.66"/></g><path class="cls-2" d="M31.75,48.44c0,.14-.16,.25-.37,.25-.23,.02-.39-.09-.39-.25,0-.14,.16-.25,.37-.25,.21-.02,.39,.09,.39,.25Zm-2.19-.32c-.05,.14,.09,.3,.3,.35,.18,.07,.39,0,.44-.14s-.09-.3-.3-.37c-.18-.05-.39,.02-.44,.16h0Zm3.12-.12c-.2,.05-.35,.18-.32,.35,.02,.14,.2,.23,.42,.18,.2-.05,.35-.18,.32-.32-.02-.13-.21-.23-.42-.2Zm4.64-27.02c-9.78,0-17.26,7.42-17.26,17.2,0,7.82,4.92,14.51,11.95,16.86,.9,.16,1.22-.39,1.22-.85s-.02-2.85-.02-4.33c0,0-4.94,1.06-5.97-2.1,0,0-.8-2.05-1.96-2.58,0,0-1.61-1.11,.11-1.09,0,0,1.76,.14,2.72,1.82,1.54,2.72,4.13,1.94,5.14,1.47,.16-1.13,.62-1.91,1.13-2.38-3.94-.44-7.92-1.01-7.92-7.79,0-1.94,.54-2.91,1.66-4.15-.18-.46-.78-2.35,.18-4.79,1.47-.46,4.86,1.9,4.86,1.9,1.41-.39,2.93-.6,4.43-.6s3.02,.2,4.43,.6c0,0,3.39-2.37,4.86-1.9,.97,2.45,.37,4.33,.18,4.79,1.13,1.25,1.82,2.22,1.82,4.15,0,6.8-4.15,7.35-8.09,7.79,.65,.56,1.2,1.61,1.2,3.27,0,2.38-.02,5.32-.02,5.89,0,.46,.32,1.02,1.22,.85,7.05-2.34,11.83-9.03,11.83-16.85,0-9.78-7.93-17.2-17.71-17.2Zm-10.41,24.32c-.09,.07-.07,.23,.05,.37,.11,.11,.27,.16,.37,.07,.09-.07,.07-.23-.05-.37-.11-.11-.27-.16-.37-.07Zm-.76-.57c-.05,.09,.02,.2,.16,.27,.11,.07,.25,.05,.3-.05,.05-.09-.02-.2-.16-.27-.14-.04-.25-.02-.3,.05Zm2.28,2.51c-.11,.09-.07,.3,.09,.44,.16,.16,.37,.18,.46,.07,.09-.09,.05-.3-.09-.44-.16-.16-.37-.18-.46-.07Zm-.8-1.04c-.11,.07-.11,.25,0,.42s.3,.23,.39,.16c.11-.09,.11-.27,0-.44-.1-.16-.28-.23-.39-.14h0Z"/></svg>