<?xml version="1.0" encoding="UTF-8"?><svg id="Capa_1" xmlns="http://www.w3.org/2000/svg" viewBox="0 0 76.06 76.06"><defs><style>.cls-1{fill:#f8f8f8;}.cls-2{fill:#fbdd00;}</style></defs><g><circle class="cls-2" cx="38.03" cy="38.03" r="38.03"/><circle class="cls-1" cx="38.03" cy="38.03" r="33.66"/></g><path class="cls-2" d="M20.54,20.54V55.52H55.52V20.54H20.54Zm19.03,27.27c0,3.4-2,4.96-4.91,4.96-2.63,0-4.15-1.36-4.93-3.01l2.68-1.62c.52,.91,.98,1.69,2.12,1.69s1.76-.42,1.76-2.07v-11.17h3.29v11.22h0Zm7.77,4.96c-3.05,0-5.03-1.45-5.99-3.36l2.68-1.55c.7,1.15,1.62,2,3.24,2,1.36,0,2.23-.68,2.23-1.62,0-1.12-.89-1.52-2.4-2.19l-.82-.35c-2.37-1.01-3.94-2.28-3.94-4.96,0-2.47,1.88-4.34,4.81-4.34,2.09,0,3.59,.73,4.67,2.63l-2.56,1.64c-.56-1.01-1.17-1.41-2.12-1.41s-1.57,.61-1.57,1.41c0,.98,.61,1.38,2.02,2l.82,.35c2.79,1.19,4.36,2.42,4.36,5.17,0,2.95-2.33,4.57-5.44,4.57h0Z"/></svg>